<svg xmlns="http://www.w3.org/2000/svg" viewBox="0 0 512 512">
  <defs>
    <linearGradient id="bg" x1="0" y1="0" x2="0" y2="1">
      <stop offset="0" stop-color="#54c2ff"/>
      <stop offset="1" stop-color="#1186f5"/>
    </linearGradient>
  </defs>
  <rect width="512" height="512" rx="112" fill="url(#bg)"/>
  <!-- Sun -->
  <circle cx="256" cy="180" r="58" fill="#fcd34d"/>
  <g stroke="#fcd34d" stroke-width="10" stroke-linecap="round">
    <line x1="256" y1="86" x2="256" y2="110"/>
    <line x1="256" y1="250" x2="256" y2="274"/>
    <line x1="162" y1="180" x2="186" y2="180"/>
    <line x1="326" y1="180" x2="350" y2="180"/>
    <line x1="190" y1="114" x2="206" y2="130"/>
    <line x1="306" y1="230" x2="322" y2="246"/>
    <line x1="306" y1="130" x2="322" y2="114"/>
    <line x1="190" y1="246" x2="206" y2="230"/>
  </g>
  <!-- Leopard silhouette inside circle -->
  <g transform="translate(256 360)">
    <ellipse cx="0" cy="0" rx="120" ry="70" fill="#fff"/>
    <circle cx="-65" cy="-40" r="34" fill="#fff"/>
    <circle cx="-78" cy="-50" r="8" fill="#0b1530"/>
    <circle cx="-52" cy="-50" r="8" fill="#0b1530"/>
    <path d="M-72 -28 Q-65 -22 -58 -28" stroke="#0b1530" stroke-width="4" fill="none" stroke-linecap="round"/>
    <!-- Ears -->
    <path d="M-92 -64 L-86 -82 L-72 -68 Z" fill="#fff"/>
    <path d="M-58 -68 L-44 -82 L-50 -64 Z" fill="#fff"/>
    <!-- Spots -->
    <circle cx="20" cy="-10" r="6" fill="#0b1530"/>
    <circle cx="48" cy="6" r="6" fill="#0b1530"/>
    <circle cx="70" cy="-14" r="5" fill="#0b1530"/>
    <circle cx="8" cy="20" r="5" fill="#0b1530"/>
  </g>
</svg>
